<svg width="81" height="86" viewBox="0 0 81 86" fill="none" xmlns="http://www.w3.org/2000/svg">
<path d="M13.2672 16.2155L22.1121 5.40517L39.3103 0L68.3017 11.3017L78.1293 28.9914L80.5862 54.0517L74.6897 75.181L56.0172 83.0431L26.5345 85.5L0 68.3017V43.7328L2.4569 28.9914L13.2672 16.2155Z" fill="#2F332E"/>
<path d="M72.0078 48.0039L71.9844 48.0918L69.2812 57.9873L69.2334 58.1621L69.1045 58.29L62.3789 64.9385L55.918 73.0723L55.793 73.2295L55.6025 73.293L41.5508 77.9932L41.3457 78.0625L41.1396 77.999L29.79 74.5352L29.7471 74.5225L29.7061 74.5039L16.1943 68.3193L15.9707 68.2168L15.8652 67.9951L9.37988 54.3887L9.32617 54.2754L9.31641 54.1494L8.50586 43.5117L8.49219 43.3311L8.57031 43.167L13.7051 32.5293L13.7363 32.4658L13.7793 32.4092L18.373 26.4727L18.4463 26.3779L18.5479 26.3135L22.8711 23.5928L23.3477 23.293L23.7295 23.707L28.0527 28.4072L28.5977 29L27.9199 29.4346L22.7012 32.7783L21.1602 36.7773L21.1094 36.9082L21.0117 37.0078L16.29 41.8105L15.0078 48.3789L17.0967 55.7881L24.2275 66.1846L28.5996 68.3037L40.6797 71.4287L51.2402 64.6611L51.2695 64.6426L51.2998 64.627L61.2832 59.5752L63.3682 50.2705L64.5801 41.0527L62.5723 34.9883L60.1738 28.3398L58.7227 26.9248L55.668 24.2158L54.5332 23.2109L56.0391 23.0391L56.3926 22.998L56.5752 22.9775L56.7432 23.0518L58.5322 23.8438L67.5078 26.2324L67.5488 26.2432L67.5879 26.2588L68.8828 26.7822L69.1963 26.9092L69.2832 27.2363L71.9854 37.4229L72.0078 37.5078V48.0039Z" fill="#B0B0B0" stroke="#B0B0B0" stroke-width="1.35222"/>
<path d="M49.8901 13.7762L49.932 13.8185L49.9815 13.8505L53.3829 16.0478L53.425 16.0749L53.4715 16.0933L62.3019 19.6586L68.7679 27.2892L63.2421 36.8845L60.0256 25.2539L59.9228 24.8807L59.536 24.8668L52.871 24.6187L52.7321 24.6134L52.6092 24.6777L49.6166 26.2227L46.9489 26.5284L44.0134 25.46L43.9089 25.4218L43.7975 25.4294L41.4536 25.5852L41.3592 25.5916L41.2723 25.6305L39.1027 26.6043L36.9999 25.9343L35.4723 25.151L35.321 25.1635L33.9786 25.2774L36.8385 23.6808L39.2863 23.1833L39.3283 23.1741L39.3691 23.1588L44.4341 21.2278L44.6235 21.1559L45.7602 18.9391L45.1013 18.7857L43.633 18.4432L42.8488 17.6438L42.6681 17.459L42.4114 17.4887L36.7944 18.1314L36.0044 17.7264L35.7803 17.8189L35.1782 18.0643L36.9531 16.4777L39.6716 16.1651L39.6508 15.114L31.4757 14.4978L30.0697 13.7768L29.9969 13.7626L28.8004 13.5255L30.0173 13.0081L34.4114 13.0531L35.4683 13.0638L34.8427 12.2119L34.3094 11.4863L34.1164 11.2227L33.794 11.278L31.9407 11.5941L29.4729 10.7436L28.3019 9.71848L28.2274 9.65396L28.1352 9.61983L26.7327 9.10813L28.5737 8.66822L32.0731 8.7033L44.9334 10.8023L48.1887 12.039L49.8901 13.7762Z" fill="#B0B0B0" stroke="#B0B0B0" stroke-width="1.05636"/>
</svg>
